<?xml version="1.0" encoding="UTF-8" standalone="no"?>
<!DOCTYPE svg PUBLIC "-//W3C//DTD SVG 1.1//EN" "http://www.w3.org/Graphics/SVG/1.1/DTD/svg11.dtd">
<svg version="1.1" xmlns="http://www.w3.org/2000/svg" xmlns:xlink="http://www.w3.org/1999/xlink" preserveAspectRatio="xMidYMid meet" viewBox="0 0 640 640" width="640" height="640"><defs><path d="M586.39 262.12C573.64 249.41 558.77 239.02 542.44 231.43C552.29 209.95 557.4 186.6 557.42 162.97C557.42 155.96 557.42 99.91 557.42 92.91C557.42 87.21 552.8 82.59 547.1 82.59C540.09 82.59 484.04 82.59 477.04 82.59C453.4 82.6 430.05 87.7 408.56 97.55C400.97 81.23 390.58 66.35 377.87 53.6C372.81 48.54 332.35 8.08 327.29 3.02C323.26 -1.01 316.73 -1.01 312.7 3.02C307.64 8.08 267.17 48.54 262.12 53.6C249.41 66.35 239.02 81.23 231.43 97.55C209.95 87.71 186.6 82.6 162.97 82.59C155.97 82.59 99.92 82.59 92.91 82.59C87.21 82.59 82.59 87.21 82.59 92.91C82.59 99.91 82.59 155.96 82.59 162.97C82.61 186.6 87.71 209.96 97.56 231.44C81.23 239.04 66.36 249.42 53.61 262.13C48.55 267.19 8.08 307.65 3.03 312.71C-1 316.74 -1 323.28 3.03 327.31C8.08 332.37 48.55 372.83 53.61 377.89C66.36 390.6 81.23 400.98 97.56 408.58C87.71 430.06 82.61 453.4 82.59 477.03C82.59 484.04 82.59 540.08 82.59 547.09C82.59 552.79 87.21 557.41 92.91 557.41C99.92 557.41 155.97 557.41 162.97 557.41C186.61 557.4 209.96 552.29 231.45 542.45C239.04 558.77 249.43 573.65 262.14 586.4C267.2 591.46 307.66 631.92 312.72 636.98C316.75 641.01 323.28 641.01 327.31 636.98C332.37 631.92 372.83 591.46 377.89 586.4C390.6 573.65 400.99 558.77 408.58 542.45C430.06 552.29 453.41 557.4 477.04 557.41C484.04 557.41 540.09 557.41 547.1 557.41C552.8 557.41 557.42 552.79 557.42 547.09C557.42 540.08 557.42 484.04 557.42 477.03C557.4 453.4 552.3 430.04 542.45 408.55C558.78 400.96 573.65 390.58 586.4 377.87C591.46 372.81 631.92 332.34 636.98 327.29C641 323.25 641 316.73 636.97 312.7C626.86 302.59 591.45 267.18 586.39 262.12ZM477.04 103.23C481.02 103.23 500.93 103.23 536.77 103.23C536.77 139.07 536.77 158.98 536.77 162.97C536.76 184.01 532.14 204.8 523.22 223.87C508.23 219.17 492.61 216.78 476.9 216.78C476.49 216.78 473.19 216.78 472.77 216.78C451.08 216.77 429.62 221.34 409.81 230.2C418.66 210.38 423.23 188.93 423.23 167.23C423.23 166.82 423.23 163.51 423.23 163.1C423.23 147.4 420.85 131.78 416.16 116.79C435.21 107.88 456 103.25 477.04 103.23ZM476.9 237.42C489.1 237.45 501.23 239.13 512.97 242.42C507.56 250.59 501.33 258.2 494.39 265.13C494.17 265.34 492.42 267.1 492.2 267.31C465.15 294.5 428.36 309.74 390.01 309.64C387 309.64 371.98 309.65 344.92 309.68C364.69 289.91 375.67 278.92 377.87 276.73C402.99 251.48 437.16 237.32 472.77 237.42C473.6 237.42 476.49 237.42 476.9 237.42ZM402.58 163.1C402.58 165.58 402.58 166.95 402.58 167.23C402.68 202.84 388.53 237.01 363.28 262.12C361.08 264.32 350.1 275.31 330.33 295.08C330.33 268 330.33 252.95 330.33 249.94C330.22 211.59 345.46 174.8 372.65 147.75C372.87 147.53 374.62 145.78 374.84 145.56C381.76 138.62 389.37 132.4 397.55 126.98C400.86 138.74 402.55 150.89 402.58 163.1C402.58 163.1 402.58 163.1 402.58 163.1ZM320 24.93C345.97 50.89 360.39 65.31 363.28 68.2C374.57 79.53 383.74 92.79 390.35 107.36C379.44 114.04 369.35 121.96 360.26 130.97C360.04 131.19 358.29 132.94 358.07 133.16C341.21 150.03 328.22 170.37 320 192.77C311.79 170.37 298.8 150.04 281.95 133.17C281.73 132.95 279.98 131.2 279.76 130.98C270.67 121.97 260.57 114.04 249.66 107.36C256.27 92.79 265.44 79.53 276.73 68.2C282.5 62.43 296.93 48 320 24.93ZM242.42 127.03C250.6 132.45 258.21 138.67 265.13 145.61C265.35 145.83 267.1 147.58 267.32 147.8C294.5 174.85 309.74 211.65 309.64 249.99C309.64 253 309.64 268.05 309.64 295.13C289.87 275.36 278.89 264.38 276.69 262.18C251.44 237.05 237.3 202.86 237.43 167.23C237.43 166.95 237.43 165.58 237.43 163.1C238.56 146.88 240.23 134.86 242.42 127.03ZM295.09 309.68C268 309.68 252.96 309.68 249.95 309.68C211.6 309.78 174.8 294.54 147.76 267.36C147.54 267.14 145.79 265.39 145.57 265.17C138.63 258.24 132.4 250.63 126.99 242.46C138.74 239.15 150.89 237.46 163.11 237.42C163.52 237.42 166.82 237.42 167.23 237.42C202.85 237.32 237.02 251.48 262.13 276.73C266.52 281.12 277.51 292.1 295.09 309.68ZM162.97 103.23C184.02 103.24 204.81 107.87 223.87 116.78C219.18 131.77 216.79 147.39 216.78 163.1C216.78 163.51 216.78 166.82 216.78 167.23C216.77 188.93 221.35 210.38 230.2 230.2C210.39 221.34 188.93 216.77 167.23 216.78C166.82 216.78 163.52 216.78 163.11 216.78C147.4 216.77 131.79 219.16 116.8 223.85C107.88 204.79 103.25 184.01 103.24 162.97C103.24 158.98 103.24 139.07 103.24 103.23C139.08 103.23 158.99 103.23 162.97 103.23ZM24.93 320C50.89 294.04 65.32 279.61 68.2 276.73C79.53 265.44 92.8 256.27 107.36 249.65C114.05 260.56 121.97 270.66 130.97 279.74C131.19 279.96 132.94 281.71 133.16 281.93C150.03 298.79 170.38 311.78 192.77 320C170.38 328.21 150.04 341.2 133.17 358.06C132.95 358.28 131.2 360.03 130.98 360.25C121.97 369.33 114.05 379.44 107.36 390.35C92.8 383.73 79.53 374.56 68.2 363.27C62.43 357.5 48.01 343.08 24.93 320ZM162.97 536.77C158.99 536.77 139.08 536.77 103.24 536.77C103.24 500.93 103.24 481.02 103.24 477.03C103.25 455.99 107.87 435.2 116.79 416.13C131.78 420.83 147.4 423.22 163.11 423.22C163.52 423.22 166.82 423.22 167.23 423.22C188.93 423.23 210.39 418.66 230.2 409.8C221.35 429.61 216.77 451.07 216.78 472.77C216.78 473.18 216.78 476.49 216.78 476.9C216.78 492.6 219.16 508.22 223.85 523.2C204.79 532.12 184.01 536.75 162.97 536.77ZM163.11 402.58C150.91 402.55 138.78 400.87 127.04 397.58C132.45 389.41 138.68 381.8 145.62 374.87C145.84 374.65 147.59 372.9 147.81 372.68C174.85 345.5 211.65 330.26 250 330.36C253 330.36 268.03 330.35 295.09 330.32C275.32 350.09 264.33 361.07 262.14 363.27C237.02 388.52 202.85 402.68 167.23 402.58C166.41 402.58 163.52 402.58 163.11 402.58ZM237.43 472.77C237.33 437.16 251.48 402.99 276.73 377.88C278.93 375.68 289.91 364.69 309.68 344.92C309.68 372 309.68 387.05 309.68 390.06C309.78 428.4 294.55 465.2 267.36 492.25C267.14 492.47 265.39 494.22 265.17 494.44C258.25 501.38 250.64 507.6 242.46 513.02C239.16 501.26 237.46 489.11 237.43 476.9C237.43 476.07 237.43 473.18 237.43 472.77ZM320 615.07C294.04 589.11 279.62 574.69 276.73 571.8C265.45 560.48 256.28 547.24 249.66 532.69C260.57 525.99 270.66 518.05 279.75 509.03C279.97 508.81 281.72 507.06 281.94 506.84C298.8 489.97 311.79 469.63 320 447.23C328.22 469.62 341.21 489.96 358.06 506.83C358.28 507.05 360.03 508.8 360.25 509.02C369.34 518.04 379.44 525.98 390.35 532.68C383.73 547.23 374.56 560.48 363.28 571.8C357.51 577.57 343.08 591.99 320 615.07ZM397.59 512.96C389.41 507.55 381.8 501.33 374.88 494.38C374.66 494.17 372.91 492.41 372.69 492.2C345.5 465.15 330.27 428.35 330.37 390.01C330.37 387 330.37 371.97 330.37 344.92C350.14 364.69 361.12 375.67 363.32 377.87C388.55 402.99 402.69 437.16 402.58 472.77C402.58 473.04 402.58 474.42 402.58 476.9C401.45 493.12 399.78 505.14 397.59 512.96ZM344.92 330.32C372.01 330.32 387.05 330.32 390.06 330.32C428.41 330.22 465.21 345.46 492.25 372.64C492.47 372.86 494.22 374.61 494.44 374.83C501.38 381.76 507.61 389.37 513.02 397.54C501.27 400.85 489.12 402.54 476.9 402.58C476.49 402.58 473.19 402.58 472.77 402.58C437.16 402.67 402.99 388.52 377.88 363.27C373.49 358.88 362.5 347.89 344.92 330.32ZM477.04 536.77C455.99 536.76 435.2 532.13 416.14 523.21C420.83 508.22 423.22 492.61 423.23 476.9C423.23 476.49 423.23 473.18 423.23 472.77C423.23 451.07 418.66 429.61 409.81 409.8C429.62 418.66 451.08 423.23 472.77 423.22C473.19 423.22 476.49 423.22 476.9 423.22C492.61 423.22 508.22 420.84 523.21 416.15C532.13 435.21 536.76 455.99 536.77 477.03C536.77 481.02 536.77 500.93 536.77 536.77C500.93 536.77 481.02 536.77 477.04 536.77ZM532.7 390.35C526 379.44 518.06 369.34 509.04 360.26C508.82 360.04 507.07 358.29 506.85 358.07C489.97 341.21 469.63 328.22 447.24 320C469.63 311.78 489.97 298.8 506.84 281.94C507.06 281.72 508.81 279.97 509.03 279.75C518.05 270.67 525.99 260.57 532.69 249.65C547.23 256.27 560.48 265.44 571.8 276.73C574.68 279.61 589.11 294.04 615.08 320L571.81 363.27C555.43 376.91 542.4 385.93 532.7 390.35Z" id="b1zOuXz1iZ"></path></defs><g><g><g><use xlink:href="#b1zOuXz1iZ" opacity="1" fill="#ffffff" fill-opacity="1"></use><g><use xlink:href="#b1zOuXz1iZ" opacity="1" fill-opacity="0" stroke="#000000" stroke-width="1" stroke-opacity="0"></use></g></g></g></g></svg>